<?xml version="1.0" encoding="utf-8"?>
<!-- Generator: Adobe Illustrator 16.0.0, SVG Export Plug-In . SVG Version: 6.00 Build 0)  -->
<!DOCTYPE svg PUBLIC "-//W3C//DTD SVG 1.1//EN" "http://www.w3.org/Graphics/SVG/1.1/DTD/svg11.dtd">
<svg version="1.1" xmlns="http://www.w3.org/2000/svg" xmlns:xlink="http://www.w3.org/1999/xlink" x="0px" y="0px" width="1266px"
	 height="850px" viewBox="0 0 1266 850" enable-background="new 0 0 1266 850" xml:space="preserve">
<g id="min">
	<polygon fill="#7AC943" points="666,50 666,349.455 730.803,412.086 666,469.051 666,759 988,759 988,469.62 1053.11,412.086 
		986.105,348.583 988.615,50 	"/>
	<g>
		<path fill="#FFFFFF" d="M713.491,710.364l5.734,16.856h0.068l5.424-16.856h7.588v24.513h-5.047v-17.372h-0.068l-6.008,17.372
			h-4.154l-6.009-17.201h-0.068v17.201h-5.048v-24.513H713.491z"/>
		<path fill="#FFFFFF" d="M742.434,710.364v24.513h-5.391v-24.513H742.434z"/>
		<path fill="#FFFFFF" d="M752.528,710.364l10.23,16.444h0.07v-16.444h5.046v24.513h-5.391l-10.196-16.41h-0.068v16.41h-5.048
			v-24.513H752.528z"/>
		<path fill="#FFFFFF" d="M778.003,710.364v24.513h-5.391v-24.513H778.003z"/>
		<path fill="#FFFFFF" d="M799.977,710.364v4.532h-11.846v5.664h10.267v4.188h-10.267v10.128h-5.391v-24.513H799.977z"/>
		<path fill="#FFFFFF" d="M808.49,710.364v24.513H803.1v-24.513H808.49z"/>
		<path fill="#FFFFFF" d="M828.952,716.904c-0.32-0.516-0.721-0.967-1.201-1.357c-0.481-0.388-1.024-0.691-1.631-0.909
			c-0.607-0.217-1.242-0.325-1.906-0.325c-1.213,0-2.243,0.234-3.089,0.703c-0.848,0.469-1.534,1.099-2.061,1.889
			c-0.527,0.789-0.91,1.688-1.149,2.695c-0.241,1.007-0.362,2.049-0.362,3.124c0,1.03,0.121,2.031,0.362,3.004
			c0.239,0.974,0.622,1.849,1.149,2.627c0.526,0.777,1.213,1.402,2.061,1.87c0.846,0.47,1.876,0.705,3.089,0.705
			c1.648,0,2.936-0.503,3.862-1.512c0.927-1.007,1.494-2.335,1.7-3.982h5.218c-0.137,1.534-0.492,2.919-1.063,4.154
			c-0.572,1.236-1.328,2.29-2.266,3.159c-0.939,0.87-2.038,1.534-3.297,1.99c-1.259,0.458-2.644,0.688-4.154,0.688
			c-1.877,0-3.564-0.326-5.063-0.979c-1.5-0.652-2.764-1.55-3.794-2.695c-1.03-1.145-1.819-2.489-2.369-4.033
			c-0.549-1.546-0.823-3.211-0.823-4.996c0-1.831,0.274-3.53,0.823-5.099c0.55-1.567,1.339-2.936,2.369-4.104
			c1.03-1.167,2.294-2.082,3.794-2.746c1.499-0.663,3.187-0.995,5.063-0.995c1.351,0,2.627,0.194,3.829,0.584
			c1.201,0.389,2.276,0.956,3.227,1.698c0.949,0.744,1.734,1.665,2.352,2.764c0.619,1.099,1.007,2.358,1.168,3.777h-5.219
			C829.479,717.985,829.272,717.419,828.952,716.904z"/>
		<path fill="#FFFFFF" d="M850.891,710.364l9.168,24.513h-5.598l-1.854-5.459h-9.167l-1.923,5.459h-5.425l9.271-24.513H850.891z
			 M851.2,725.401l-3.091-8.995h-0.068l-3.193,8.995H851.2z"/>
		<path fill="#FFFFFF" d="M857.105,714.896v-4.532h20.084v4.532h-7.347v19.98h-5.39v-19.98H857.105z"/>
		<path fill="#FFFFFF" d="M885.396,710.364v24.513h-5.391v-24.513H885.396z"/>
		<path fill="#FFFFFF" d="M889.893,717.625c0.55-1.567,1.339-2.936,2.369-4.104c1.029-1.167,2.294-2.082,3.793-2.746
			c1.5-0.663,3.188-0.995,5.064-0.995c1.9,0,3.594,0.332,5.081,0.995c1.488,0.664,2.747,1.579,3.776,2.746
			c1.031,1.168,1.821,2.536,2.37,4.104c0.55,1.568,0.824,3.268,0.824,5.099c0,1.785-0.274,3.45-0.824,4.996
			c-0.549,1.544-1.339,2.889-2.37,4.033c-1.029,1.146-2.288,2.043-3.776,2.695c-1.487,0.652-3.181,0.979-5.081,0.979
			c-1.877,0-3.564-0.326-5.064-0.979c-1.499-0.652-2.764-1.55-3.793-2.695c-1.03-1.145-1.819-2.489-2.369-4.033
			c-0.549-1.546-0.824-3.211-0.824-4.996C889.068,720.893,889.344,719.193,889.893,717.625z M894.82,725.728
			c0.239,0.974,0.622,1.849,1.149,2.627c0.526,0.777,1.213,1.402,2.06,1.87c0.847,0.47,1.877,0.705,3.09,0.705
			s2.243-0.235,3.091-0.705c0.846-0.468,1.533-1.093,2.059-1.87c0.527-0.778,0.911-1.653,1.151-2.627
			c0.239-0.973,0.36-1.974,0.36-3.004c0-1.075-0.121-2.117-0.36-3.124c-0.24-1.007-0.624-1.906-1.151-2.695
			c-0.525-0.79-1.213-1.42-2.059-1.889c-0.848-0.469-1.878-0.703-3.091-0.703s-2.243,0.234-3.09,0.703s-1.533,1.099-2.06,1.889
			c-0.527,0.789-0.91,1.688-1.149,2.695c-0.241,1.007-0.362,2.049-0.362,3.124C894.458,723.754,894.579,724.755,894.82,725.728z"/>
		<path fill="#FFFFFF" d="M922.2,710.364l10.231,16.444h0.069v-16.444h5.046v24.513h-5.391l-10.196-16.41h-0.068v16.41h-5.048
			v-24.513H922.2z"/>
	</g>
	<g id="Calque_1">
	</g>
	<g>
		<g>
			<g>
				<path fill="#E9E9E0" d="M893.095,287.841H757.833c-3.765,0-6.818,1.896-6.818,5.581v153.787c0,0.999,3.054,2.899,6.818,2.899
					h186.773c3.766,0,6.82-1.9,6.82-2.899V325.448c0-2.019-0.434-2.668-1.201-3.146l-54.233-33.717
					C895.226,288.111,894.182,287.841,893.095,287.841z"/>
				<polygon fill="#D9D7CA" points="895.497,287.352 895.497,321.688 950.722,321.688 				"/>
			</g>
		</g>
		<g>
			<g>
				<path fill="#FBB03B" d="M765.968,389.227v-9.19h-1.535v-2.141h1.535v-0.488c0-1.466,0.396-2.932,1.373-3.862
					c0.838-0.792,1.978-1.094,2.955-1.094c0.768,0,1.372,0.116,1.838,0.279l-0.21,2.21c-0.302-0.117-0.697-0.209-1.209-0.209
					c-1.42,0-1.908,1.187-1.908,2.583v0.582h2.489v2.141h-2.466v9.19H765.968z"/>
				<path fill="#FBB03B" d="M783.583,383.457c0,4.165-2.932,6.026-5.816,6.026c-3.211,0-5.677-2.21-5.677-5.84
					c0-3.722,2.442-6.002,5.862-6.002C781.327,377.64,783.583,380.013,783.583,383.457z M775.045,383.573
					c0,2.187,1.069,3.839,2.814,3.839c1.63,0,2.769-1.605,2.769-3.885c0-1.769-0.79-3.793-2.745-3.793
					C775.858,379.734,775.045,381.688,775.045,383.573z"/>
				<path fill="#FBB03B" d="M785.938,381.549c0-1.536-0.023-2.629-0.093-3.653h2.489l0.094,2.164h0.093
					c0.559-1.605,1.884-2.419,3.094-2.419c0.279,0,0.443,0.023,0.675,0.07v2.699c-0.231-0.047-0.488-0.093-0.837-0.093
					c-1.373,0-2.304,0.884-2.56,2.164c-0.047,0.255-0.093,0.558-0.093,0.884v5.863h-2.862V381.549z"/>
				<path fill="#FBB03B" d="M799.039,373.104c-1.489,2.21-2.628,5.281-2.628,9.469c0,4.118,1.162,7.166,2.628,9.399h-2.094
					c-1.326-1.861-2.815-4.886-2.815-9.399c0.023-4.537,1.489-7.585,2.815-9.469H799.039z"/>
				<path fill="#FBB03B" d="M803.043,377.896l1.838,5.747c0.326,1.001,0.559,1.908,0.768,2.839h0.07
					c0.209-0.931,0.466-1.815,0.768-2.839l1.792-5.747h3.024l-4.328,11.331h-2.814l-4.212-11.331H803.043z"/>
				<path fill="#FBB03B" d="M819.288,389.227l-0.187-1.256h-0.069c-0.699,0.884-1.886,1.512-3.352,1.512
					c-2.279,0-3.559-1.652-3.559-3.374c0-2.862,2.535-4.305,6.724-4.281v-0.186c0-0.745-0.303-1.978-2.304-1.978
					c-1.116,0-2.28,0.349-3.048,0.837l-0.559-1.861c0.838-0.512,2.304-1,4.095-1c3.63,0,4.677,2.304,4.677,4.77v4.095
					c0,1.024,0.047,2.024,0.163,2.722H819.288z M818.915,383.689c-2.023-0.047-3.955,0.396-3.955,2.117
					c0,1.117,0.721,1.629,1.628,1.629c1.141,0,1.979-0.745,2.234-1.559c0.069-0.21,0.093-0.442,0.093-0.629V383.689z"/>
				<path fill="#FBB03B" d="M824.735,381.549c0-1.536-0.023-2.629-0.093-3.653h2.489l0.094,2.164h0.093
					c0.559-1.605,1.885-2.419,3.094-2.419c0.279,0,0.443,0.023,0.675,0.07v2.699c-0.231-0.047-0.488-0.093-0.837-0.093
					c-1.373,0-2.304,0.884-2.56,2.164c-0.046,0.255-0.093,0.558-0.093,0.884v5.863h-2.862V381.549z"/>
				<path fill="#FBB03B" d="M840.886,374.732c0,0.86-0.628,1.536-1.628,1.536c-0.954,0-1.582-0.675-1.582-1.536
					c0-0.884,0.651-1.559,1.605-1.559C840.258,373.173,840.862,373.848,840.886,374.732z M837.838,389.227v-11.331h2.886v11.331
					H837.838z"/>
				<path fill="#FBB03B" d="M843.191,381.549v-1.838h12.006v1.838H843.191z M843.191,386.249v-1.815h12.006v1.815H843.191z"/>
				<path fill="#FBB03B" d="M867.812,381.572c0,4.863-1.907,7.911-5.514,7.911c-3.49,0-5.352-3.165-5.374-7.771
					c0-4.7,2-7.864,5.536-7.864C866.114,373.848,867.812,377.105,867.812,381.572z M859.808,381.712
					c-0.023,3.676,1.001,5.584,2.583,5.584c1.676,0,2.56-2.048,2.56-5.677c0-3.513-0.837-5.584-2.56-5.584
					C860.855,376.035,859.784,377.919,859.808,381.712z"/>
				<path fill="#FBB03B" d="M868.793,392.042c0.628-1.769,1.257-4.211,1.559-6.143l3.002-0.233c-0.651,2.188-1.699,4.7-2.606,6.189
					L868.793,392.042z"/>
				<path fill="#FBB03B" d="M882.011,389.227l-0.187-1.256h-0.069c-0.699,0.884-1.886,1.512-3.352,1.512
					c-2.279,0-3.56-1.652-3.56-3.374c0-2.862,2.536-4.305,6.724-4.281v-0.186c0-0.745-0.302-1.978-2.304-1.978
					c-1.115,0-2.279,0.349-3.047,0.837l-0.559-1.861c0.838-0.512,2.304-1,4.095-1c3.63,0,4.677,2.304,4.677,4.77v4.095
					c0,1.024,0.047,2.024,0.163,2.722H882.011z M881.638,383.689c-2.023-0.047-3.955,0.396-3.955,2.117
					c0,1.117,0.721,1.629,1.629,1.629c1.14,0,1.978-0.745,2.233-1.559c0.069-0.21,0.093-0.442,0.093-0.629V383.689z"/>
				<path fill="#FBB03B" d="M886.854,381.549v-1.838h12.005v1.838H886.854z M886.854,386.249v-1.815h12.005v1.815H886.854z"/>
				<path fill="#FBB03B" d="M901.516,391.833V373.29h4.537v1.652h-2.42v15.263h2.42v1.628H901.516z"/>
				<path fill="#FBB03B" d="M912.057,373.266v18.567h-4.514v-1.652h2.397v-15.263h-2.397v-1.652H912.057z"/>
				<path fill="#FBB03B" d="M913.99,392.042c0.651-1.769,1.279-4.211,1.559-6.143l3.001-0.233c-0.675,2.188-1.698,4.7-2.606,6.189
					L913.99,392.042z M915.153,379.827c0-1.07,0.721-1.838,1.744-1.838c1.048,0,1.745,0.768,1.769,1.838
					c0,1.047-0.697,1.815-1.769,1.815C915.852,381.642,915.129,380.875,915.153,379.827z"/>
				<path fill="#FBB03B" d="M768.689,402.662c0,0.86-0.628,1.535-1.628,1.535c-0.953,0-1.581-0.675-1.581-1.535
					c0-0.884,0.65-1.559,1.604-1.559C768.062,401.103,768.667,401.777,768.689,402.662z M765.643,417.156v-11.331h2.885v11.331
					H765.643z"/>
				<path fill="#FBB03B" d="M771.485,410.13l11.028-5.351v2.093l-8.749,4.072v0.046l8.749,4.096v2.07l-11.028-5.352V410.13z"/>
				<path fill="#FBB03B" d="M784.937,417.156v-1.745l1.791-1.651c3.561-3.304,5.235-5.119,5.259-7.119
					c0-1.35-0.721-2.537-2.698-2.537c-1.326,0-2.467,0.675-3.234,1.257l-0.838-2.024c1.094-0.884,2.746-1.559,4.653-1.559
					c3.351,0,4.979,2.117,4.979,4.584c0,2.652-1.908,4.793-4.538,7.235l-1.325,1.141v0.046h6.212v2.373H784.937z"/>
				<path fill="#FBB03B" d="M808.091,409.501c0,4.864-1.908,7.911-5.514,7.911c-3.49,0-5.352-3.164-5.375-7.771
					c0-4.7,2-7.864,5.537-7.864C806.393,401.777,808.091,405.035,808.091,409.501z M800.087,409.642
					c-0.023,3.676,1.001,5.584,2.583,5.584c1.675,0,2.56-2.047,2.56-5.678c0-3.513-0.838-5.584-2.56-5.584
					C801.134,403.964,800.063,405.849,800.087,409.642z"/>
				<path fill="#FBB03B" d="M809.072,419.971c0.651-1.767,1.279-4.211,1.559-6.142l3.001-0.232c-0.675,2.187-1.699,4.7-2.606,6.189
					L809.072,419.971z M810.235,407.756c0-1.069,0.721-1.837,1.744-1.837c1.048,0,1.745,0.768,1.769,1.837
					c0,1.048-0.698,1.816-1.769,1.816C810.933,409.572,810.211,408.804,810.235,407.756z"/>
				<path fill="#FBB03B" d="M823.778,402.662c0,0.86-0.628,1.535-1.628,1.535c-0.954,0-1.582-0.675-1.582-1.535
					c0-0.884,0.651-1.559,1.605-1.559C823.15,401.103,823.755,401.777,823.778,402.662z M820.73,417.156v-11.331h2.886v11.331
					H820.73z"/>
				<path fill="#FBB03B" d="M833.041,404.779v5.258h5.049v1.814h-5.049v5.305h-1.908v-5.305h-5.049v-1.814h5.049v-5.258H833.041z"/>
				<path fill="#FBB03B" d="M846.911,404.779v5.258h5.049v1.814h-5.049v5.305h-1.907v-5.305h-5.049v-1.814h5.049v-5.258H846.911z"/>
				<path fill="#FBB03B" d="M853.547,419.901c1.466-2.21,2.606-5.305,2.606-9.445c0-4.142-1.141-7.189-2.606-9.423h2.07
					c1.351,1.861,2.84,4.886,2.84,9.447c-0.023,4.537-1.489,7.538-2.84,9.422H853.547z"/>
				<path fill="#FBB03B" d="M860.575,409.711c1.629-0.023,1.814-0.907,1.814-1.652c0-0.604-0.069-1.232-0.139-1.861
					c-0.093-0.651-0.164-1.279-0.164-1.884c0-2.188,1.396-3.118,3.468-3.118h0.674v1.675h-0.418c-1.21,0-1.629,0.675-1.629,1.815
					c0,0.465,0.07,0.954,0.163,1.466c0.046,0.512,0.139,1.07,0.139,1.676c0.023,1.628-0.674,2.325-1.86,2.604v0.048
					c1.187,0.279,1.884,1,1.86,2.628c0,0.63-0.093,1.187-0.139,1.699c-0.093,0.512-0.163,1-0.163,1.466
					c0,1.163,0.466,1.838,1.629,1.838h0.418v1.652h-0.674c-2.024,0-3.468-0.838-3.468-3.188c0-0.582,0.071-1.233,0.164-1.861
					c0.069-0.628,0.139-1.233,0.139-1.838c0-0.676-0.186-1.63-1.814-1.652V409.711z"/>
				<path fill="#FBB03B" d="M874.816,417.156l-0.187-1.256h-0.069c-0.699,0.884-1.886,1.512-3.352,1.512
					c-2.279,0-3.56-1.652-3.56-3.373c0-2.862,2.537-4.305,6.725-4.281v-0.186c0-0.745-0.303-1.979-2.304-1.979
					c-1.116,0-2.279,0.349-3.048,0.838l-0.559-1.862c0.838-0.512,2.304-1,4.096-1c3.629,0,4.677,2.304,4.677,4.77v4.096
					c0,1.023,0.046,2.024,0.162,2.722H874.816z M874.443,411.618c-2.023-0.046-3.955,0.396-3.955,2.119
					c0,1.115,0.721,1.628,1.63,1.628c1.139,0,1.977-0.745,2.232-1.559c0.069-0.21,0.093-0.443,0.093-0.628V411.618z"/>
				<path fill="#FBB03B" d="M880.451,419.763v-18.544h4.536v1.652h-2.419v15.263h2.419v1.629H880.451z"/>
				<path fill="#FBB03B" d="M890.316,402.662c0,0.86-0.628,1.535-1.628,1.535c-0.953,0-1.581-0.675-1.581-1.535
					c0-0.884,0.65-1.559,1.604-1.559C889.688,401.103,890.294,401.777,890.316,402.662z M887.27,417.156v-11.331h2.885v11.331
					H887.27z"/>
				<path fill="#FBB03B" d="M896.951,401.196v18.567h-4.515v-1.652h2.397v-15.263h-2.397v-1.652H896.951z"/>
				<path fill="#FBB03B" d="M904.445,409.479v-1.838h12.005v1.838H904.445z M904.445,414.179v-1.815h12.005v1.815H904.445z"/>
				<path fill="#FBB03B" d="M926.785,402.662c0,0.86-0.628,1.535-1.628,1.535c-0.953,0-1.581-0.675-1.581-1.535
					c0-0.884,0.65-1.559,1.604-1.559C926.157,401.103,926.763,401.777,926.785,402.662z M923.738,417.156v-11.331h2.885v11.331
					H923.738z"/>
				<path fill="#FBB03B" d="M928.348,419.971c0.651-1.767,1.279-4.211,1.559-6.142l3.001-0.232c-0.674,2.187-1.698,4.7-2.605,6.189
					L928.348,419.971z M929.511,407.756c0-1.069,0.721-1.837,1.744-1.837c1.048,0,1.745,0.768,1.769,1.837
					c0,1.048-0.697,1.816-1.769,1.816C930.209,409.572,929.486,408.804,929.511,407.756z"/>
				<path fill="#FBB03B" d="M939.959,411.224c-1.605,0.022-1.814,0.977-1.814,1.652c0,0.604,0.092,1.21,0.163,1.838
					c0.069,0.628,0.162,1.279,0.162,1.861c0,2.35-1.442,3.188-3.466,3.188h-0.676v-1.652h0.42c1.163-0.023,1.604-0.675,1.604-1.838
					c0-0.466-0.069-0.954-0.139-1.466c-0.071-0.513-0.141-1.069-0.141-1.699c-0.023-1.628,0.675-2.349,1.838-2.628v-0.048
					c-1.163-0.279-1.861-0.977-1.838-2.604c0-0.605,0.069-1.164,0.141-1.676c0.069-0.512,0.139-1,0.139-1.466
					c0-1.14-0.418-1.792-1.604-1.815h-0.42v-1.675h0.676c2.069,0,3.466,0.93,3.466,3.118c0,0.605-0.093,1.233-0.162,1.884
					c-0.071,0.629-0.163,1.257-0.163,1.861c0,0.745,0.209,1.629,1.814,1.652V411.224z"/>
			</g>
		</g>
	</g>
	<g>
		<g>
			<path fill="#E9E9E0" d="M891.719,84.074H759.594c-3.679,0-6.661,2.98-6.661,8.769v241.631c0,1.568,2.982,4.555,6.661,4.555
				h182.443c3.679,0,6.661-2.986,6.661-4.555V143.16c0-3.172-0.423-4.191-1.171-4.942L894.55,85.242
				C893.8,84.497,892.78,84.074,891.719,84.074z"/>
			<polygon fill="#D9D7CA" points="894.064,83.305 894.064,137.252 948.01,137.252 			"/>
		</g>
		<g>
			<polygon display="none" fill="#F2F2F2" points="1000,269 876.113,269 721,269 721,53 1000,53 			"/>
			<g>
				<path fill="#EEAF4B" d="M767.457,110.243l1.838,5.747c0.327,1,0.559,1.908,0.769,2.839h0.069
					c0.21-0.931,0.466-1.815,0.769-2.839l1.791-5.747h3.024l-4.328,11.331h-2.814l-4.211-11.331H767.457z"/>
				<path fill="#EEAF4B" d="M783.702,121.573l-0.187-1.256h-0.069c-0.699,0.884-1.886,1.512-3.352,1.512
					c-2.279,0-3.56-1.652-3.56-3.374c0-2.862,2.536-4.304,6.725-4.281v-0.186c0-0.744-0.303-1.978-2.304-1.978
					c-1.116,0-2.279,0.349-3.048,0.837l-0.559-1.861c0.838-0.512,2.304-1.001,4.096-1.001c3.629,0,4.677,2.304,4.677,4.77v4.095
					c0,1.023,0.046,2.023,0.162,2.722H783.702z M783.329,116.036c-2.023-0.047-3.955,0.395-3.955,2.117
					c0,1.117,0.721,1.628,1.629,1.628c1.14,0,1.978-0.745,2.233-1.559c0.069-0.209,0.093-0.442,0.093-0.628V116.036z"/>
				<path fill="#EEAF4B" d="M789.149,113.895c0-1.535-0.022-2.628-0.093-3.652h2.489l0.094,2.164h0.093
					c0.559-1.605,1.885-2.42,3.095-2.42c0.279,0,0.442,0.023,0.674,0.07v2.699c-0.231-0.047-0.487-0.093-0.837-0.093
					c-1.373,0-2.304,0.884-2.56,2.164c-0.046,0.255-0.093,0.558-0.093,0.884v5.863h-2.862V113.895z"/>
				<path fill="#EEAF4B" d="M808.628,121.573l-0.187-1.256h-0.069c-0.699,0.884-1.886,1.512-3.352,1.512
					c-2.279,0-3.56-1.652-3.56-3.374c0-2.862,2.536-4.304,6.725-4.281v-0.186c0-0.744-0.303-1.978-2.304-1.978
					c-1.116,0-2.279,0.349-3.048,0.837l-0.559-1.861c0.838-0.512,2.304-1.001,4.096-1.001c3.629,0,4.677,2.304,4.677,4.77v4.095
					c0,1.023,0.046,2.023,0.162,2.722H808.628z M808.255,116.036c-2.023-0.047-3.955,0.395-3.955,2.117
					c0,1.117,0.721,1.628,1.63,1.628c1.139,0,1.977-0.745,2.232-1.559c0.069-0.209,0.093-0.442,0.093-0.628V116.036z"/>
				<path fill="#EEAF4B" d="M818.288,113.895v-1.838h12.005v1.838H818.288z M818.288,118.595v-1.814h12.005v1.814H818.288z"/>
				<path fill="#EEAF4B" d="M837.768,124.18v-18.544h4.536v1.652h-2.419v15.263h2.419v1.629H837.768z"/>
				<path fill="#EEAF4B" d="M848.309,105.613v18.567h-4.515v-1.653h2.397v-15.262h-2.397v-1.652H848.309z"/>
				<path fill="#EEAF4B" d="M850.242,124.389c0.628-1.769,1.256-4.211,1.559-6.142l3.001-0.233c-0.651,2.187-1.699,4.7-2.606,6.189
					L850.242,124.389z"/>
				<path fill="#EEAF4B" d="M802.41,135.007c0,0.86-0.628,1.536-1.628,1.536c-0.954,0-1.582-0.675-1.582-1.536
					c0-0.884,0.651-1.559,1.604-1.559C801.782,133.448,802.387,134.123,802.41,135.007z M799.362,149.502v-11.331h2.886v11.331
					H799.362z"/>
				<path fill="#EEAF4B" d="M809.533,141.824v-1.838h12.005v1.838H809.533z M809.533,146.524v-1.815h12.005v1.815H809.533z"/>
				<path fill="#EEAF4B" d="M838.971,141.848c0,4.862-1.908,7.911-5.514,7.911c-3.49,0-5.352-3.165-5.375-7.771
					c0-4.7,2-7.864,5.537-7.864C837.272,134.123,838.971,137.381,838.971,141.848z M830.967,141.987
					c-0.023,3.676,1.001,5.584,2.583,5.584c1.675,0,2.56-2.048,2.56-5.677c0-3.513-0.838-5.584-2.56-5.584
					C832.014,136.31,830.943,138.195,830.967,141.987z"/>
				<path fill="#EEAF4B" d="M839.952,152.317c0.65-1.768,1.279-4.211,1.559-6.142l3.001-0.233c-0.675,2.188-1.699,4.7-2.606,6.189
					L839.952,152.317z M841.115,140.103c0-1.07,0.721-1.838,1.744-1.838c1.047,0,1.745,0.768,1.769,1.838
					c0,1.047-0.698,1.815-1.769,1.815C841.812,141.917,841.091,141.149,841.115,140.103z"/>
				<path fill="#EEAF4B" d="M765.968,177.432v-9.19h-1.535v-2.14h1.535v-0.488c0-1.466,0.396-2.932,1.373-3.862
					c0.838-0.792,1.978-1.094,2.955-1.094c0.768,0,1.372,0.117,1.838,0.279l-0.21,2.21c-0.302-0.116-0.697-0.209-1.209-0.209
					c-1.42,0-1.908,1.187-1.908,2.583v0.582h2.489v2.14h-2.466v9.19H765.968z"/>
				<path fill="#EEAF4B" d="M783.583,171.662c0,4.165-2.932,6.026-5.816,6.026c-3.211,0-5.677-2.21-5.677-5.84
					c0-3.723,2.442-6.003,5.862-6.003C781.327,165.845,783.583,168.218,783.583,171.662z M775.045,171.778
					c0,2.188,1.069,3.839,2.814,3.839c1.63,0,2.769-1.605,2.769-3.886c0-1.768-0.79-3.792-2.745-3.792
					C775.858,167.939,775.045,169.893,775.045,171.778z"/>
				<path fill="#EEAF4B" d="M785.938,169.753c0-1.535-0.023-2.628-0.093-3.652h2.489l0.094,2.164h0.093
					c0.559-1.605,1.884-2.42,3.094-2.42c0.279,0,0.443,0.023,0.675,0.07v2.699c-0.231-0.047-0.488-0.093-0.837-0.093
					c-1.373,0-2.304,0.884-2.56,2.164c-0.047,0.255-0.093,0.558-0.093,0.884v5.863h-2.862V169.753z"/>
				<path fill="#EEAF4B" d="M803.856,161.308c-1.489,2.21-2.63,5.281-2.63,9.469c0,4.118,1.164,7.166,2.63,9.399h-2.095
					c-1.325-1.861-2.814-4.885-2.814-9.399c0.023-4.537,1.489-7.585,2.814-9.469H803.856z"/>
				<path fill="#EEAF4B" d="M809.093,162.937c0,0.86-0.628,1.535-1.628,1.535c-0.954,0-1.582-0.675-1.582-1.535
					c0-0.884,0.651-1.559,1.605-1.559C808.465,161.378,809.069,162.053,809.093,162.937z M806.045,177.432v-11.331h2.886v11.331
					H806.045z"/>
				<path fill="#EEAF4B" d="M810.655,180.247c0.65-1.768,1.279-4.211,1.559-6.142l3.001-0.233c-0.675,2.187-1.699,4.7-2.606,6.189
					L810.655,180.247z M811.818,168.032c0-1.07,0.721-1.838,1.744-1.838c1.047,0,1.745,0.768,1.769,1.838
					c0,1.047-0.698,1.814-1.769,1.814C812.516,169.847,811.794,169.079,811.818,168.032z"/>
				<path fill="#EEAF4B" d="M825.361,162.937c0,0.86-0.628,1.535-1.628,1.535c-0.954,0-1.582-0.675-1.582-1.535
					c0-0.884,0.651-1.559,1.604-1.559C824.733,161.378,825.338,162.053,825.361,162.937z M822.313,177.432v-11.331h2.886v11.331
					H822.313z"/>
				<path fill="#EEAF4B" d="M832.974,170.405l11.028-5.351v2.094l-8.749,4.071v0.047l8.749,4.094v2.071l-11.028-5.351V170.405z"/>
				<path fill="#EEAF4B" d="M851.242,177.432v-1.745l1.791-1.652c3.561-3.304,5.235-5.118,5.259-7.12
					c0-1.35-0.721-2.536-2.698-2.536c-1.326,0-2.467,0.675-3.234,1.257l-0.838-2.024c1.094-0.884,2.746-1.559,4.653-1.559
					c3.351,0,4.979,2.117,4.979,4.583c0,2.652-1.908,4.793-4.538,7.236l-1.325,1.14v0.046h6.212v2.373H851.242z"/>
				<path fill="#EEAF4B" d="M874.396,169.777c0,4.862-1.908,7.911-5.514,7.911c-3.49,0-5.352-3.165-5.375-7.771
					c0-4.7,2-7.864,5.537-7.864C872.698,162.053,874.396,165.31,874.396,169.777z M866.393,169.917
					c-0.023,3.676,1.001,5.583,2.583,5.583c1.675,0,2.56-2.047,2.56-5.677c0-3.514-0.838-5.584-2.56-5.584
					C867.439,164.239,866.369,166.124,866.393,169.917z"/>
				<path fill="#EEAF4B" d="M875.378,180.247c0.65-1.768,1.279-4.211,1.559-6.142l3.001-0.233c-0.675,2.187-1.699,4.7-2.606,6.189
					L875.378,180.247z M876.541,168.032c0-1.07,0.721-1.838,1.744-1.838c1.048,0,1.745,0.768,1.769,1.838
					c0,1.047-0.698,1.814-1.769,1.814C877.238,169.847,876.517,169.079,876.541,168.032z"/>
				<path fill="#EEAF4B" d="M890.084,162.937c0,0.86-0.628,1.535-1.628,1.535c-0.954,0-1.582-0.675-1.582-1.535
					c0-0.884,0.651-1.559,1.604-1.559C889.456,161.378,890.061,162.053,890.084,162.937z M887.036,177.432v-11.331h2.886v11.331
					H887.036z"/>
				<path fill="#EEAF4B" d="M899.346,165.054v5.258h5.05v1.815h-5.05v5.305h-1.907v-5.305h-5.049v-1.815h5.049v-5.258H899.346z"/>
				<path fill="#EEAF4B" d="M913.217,165.054v5.258h5.049v1.815h-5.049v5.305h-1.907v-5.305h-5.049v-1.815h5.049v-5.258H913.217z"/>
				<path fill="#EEAF4B" d="M919.853,180.177c1.466-2.209,2.606-5.304,2.606-9.446s-1.141-7.189-2.606-9.423h2.07
					c1.351,1.861,2.84,4.886,2.84,9.446c-0.023,4.537-1.489,7.539-2.84,9.422H919.853z"/>
				<path fill="#EEAF4B" d="M931.697,169.986c1.63-0.023,1.815-0.907,1.815-1.652c0-0.605-0.069-1.233-0.14-1.861
					c-0.093-0.651-0.163-1.279-0.163-1.884c0-2.188,1.396-3.118,3.467-3.118h0.675v1.675h-0.418c-1.21,0-1.63,0.675-1.63,1.815
					c0,0.465,0.071,0.954,0.163,1.466c0.047,0.512,0.14,1.07,0.14,1.675c0.023,1.629-0.675,2.327-1.861,2.606v0.046
					c1.187,0.279,1.885,1,1.861,2.629c0,0.628-0.093,1.187-0.14,1.698c-0.092,0.512-0.163,1.001-0.163,1.466
					c0,1.163,0.466,1.837,1.63,1.837h0.418v1.652h-0.675c-2.024,0-3.467-0.837-3.467-3.188c0-0.582,0.07-1.233,0.163-1.861
					c0.07-0.629,0.14-1.234,0.14-1.839c0-0.674-0.186-1.628-1.815-1.652V169.986z"/>
				<path fill="#EEAF4B" d="M781.652,205.361l-0.187-1.256h-0.069c-0.699,0.884-1.886,1.512-3.352,1.512
					c-2.279,0-3.559-1.652-3.559-3.374c0-2.862,2.535-4.305,6.724-4.281v-0.186c0-0.745-0.303-1.978-2.304-1.978
					c-1.116,0-2.279,0.349-3.048,0.837l-0.559-1.861c0.838-0.512,2.304-1,4.095-1c3.63,0,4.678,2.304,4.678,4.77v4.095
					c0,1.024,0.046,2.024,0.162,2.722H781.652z M781.279,199.823c-2.023-0.047-3.955,0.396-3.955,2.117
					c0,1.117,0.721,1.629,1.628,1.629c1.141,0,1.979-0.745,2.234-1.559c0.069-0.21,0.093-0.442,0.093-0.629V199.823z"/>
				<path fill="#EEAF4B" d="M787.286,207.967v-18.544h4.537v1.652h-2.42v15.263h2.42v1.628H787.286z"/>
				<path fill="#EEAF4B" d="M797.152,190.866c0,0.86-0.628,1.536-1.628,1.536c-0.954,0-1.582-0.675-1.582-1.536
					c0-0.884,0.651-1.559,1.605-1.559C796.524,189.307,797.129,189.981,797.152,190.866z M794.104,205.361V194.03h2.886v11.331
					H794.104z"/>
				<path fill="#EEAF4B" d="M803.787,189.4v18.567h-4.514v-1.652h2.396v-15.263h-2.396V189.4H803.787z"/>
				<path fill="#EEAF4B" d="M811.28,197.683v-1.838h12.006v1.838H811.28z M811.28,202.383v-1.815h12.006v1.815H811.28z"/>
				<path fill="#EEAF4B" d="M833.621,190.866c0,0.86-0.628,1.536-1.628,1.536c-0.954,0-1.582-0.675-1.582-1.536
					c0-0.884,0.651-1.559,1.605-1.559C832.993,189.307,833.598,189.981,833.621,190.866z M830.573,205.361V194.03h2.886v11.331
					H830.573z"/>
				<path fill="#EEAF4B" d="M835.184,208.176c0.651-1.768,1.279-4.211,1.559-6.142l3.001-0.233c-0.675,2.188-1.699,4.7-2.606,6.189
					L835.184,208.176z M836.347,195.961c0-1.07,0.721-1.838,1.744-1.838c1.048,0,1.745,0.768,1.769,1.838
					c0,1.047-0.698,1.815-1.769,1.815C837.044,197.776,836.322,197.008,836.347,195.961z"/>
				<path fill="#EEAF4B" d="M770.412,227.356c-1.605,0.023-1.814,0.978-1.814,1.652c0,0.605,0.092,1.21,0.163,1.838
					c0.069,0.628,0.162,1.279,0.162,1.861c0,2.35-1.442,3.187-3.466,3.187h-0.676v-1.652h0.42c1.163-0.023,1.604-0.674,1.604-1.838
					c0-0.465-0.069-0.954-0.139-1.466c-0.071-0.512-0.141-1.07-0.141-1.698c-0.023-1.628,0.675-2.35,1.838-2.629v-0.046
					c-1.163-0.279-1.861-0.977-1.838-2.606c0-0.605,0.069-1.163,0.141-1.675c0.069-0.512,0.139-1.001,0.139-1.466
					c0-1.14-0.418-1.792-1.604-1.814h-0.42v-1.675h0.676c2.069,0,3.466,0.931,3.466,3.118c0,0.604-0.093,1.233-0.162,1.884
					c-0.071,0.628-0.163,1.256-0.163,1.861c0,0.745,0.209,1.629,1.814,1.652V227.356z"/>
			</g>
			<polyline fill="#F2F2F2" points="909.604,317.47 934.299,269 882,269 			"/>
		</g>
		<g>
			<rect x="747" y="258" fill="#6DA541" width="209" height="82"/>
			<g>
				<path fill="#F2F2F2" d="M773.052,312.131v-20.587h5.437l4.276,7.544c1.222,2.168,2.444,4.735,3.36,7.056h0.092
					c-0.306-2.718-0.397-5.498-0.397-8.583v-6.017h4.276v20.587h-4.887l-4.399-7.942c-1.221-2.2-2.565-4.857-3.573-7.27
					l-0.092,0.031c0.122,2.719,0.184,5.62,0.184,8.98v6.201H773.052z"/>
				<path fill="#F2F2F2" d="M806.378,303.426h-7.575v4.887h8.46v3.818h-13.134v-20.587h12.707v3.817h-8.033v4.277h7.575V303.426z"/>
				<path fill="#F2F2F2" d="M814.564,295.454h-5.528v-3.91h15.823v3.91h-5.621v16.678h-4.674V295.454z"/>
				<path fill="#F2F2F2" d="M831.976,295.454h-5.528v-3.91h15.823v3.91h-5.621v16.678h-4.674V295.454z"/>
				<path fill="#F2F2F2" d="M862.706,301.624c0,6.751-4.093,10.844-10.109,10.844c-6.109,0-9.683-4.613-9.683-10.478
					c0-6.17,3.939-10.782,10.018-10.782C859.255,291.208,862.706,295.942,862.706,301.624z M847.83,301.898
					c0,4.032,1.895,6.873,5.01,6.873c3.146,0,4.949-2.993,4.949-6.995c0-3.696-1.771-6.872-4.979-6.872
					C849.664,294.904,847.83,297.897,847.83,301.898z"/>
				<path fill="#F2F2F2" d="M869.398,312.131v-8.431l-6.507-12.157h5.315l2.107,4.948c0.641,1.497,1.068,2.596,1.588,3.94h0.062
					c0.458-1.283,0.946-2.474,1.558-3.94l2.077-4.948h5.223l-6.781,12.004v8.583H869.398z"/>
				<path fill="#F2F2F2" d="M885.038,306.847l-1.466,5.284h-4.826l6.292-20.587h6.109l6.384,20.587h-5.009l-1.588-5.284H885.038z
					 M890.263,303.365l-1.284-4.368c-0.366-1.222-0.732-2.749-1.038-3.971h-0.061c-0.306,1.222-0.612,2.78-0.948,3.971l-1.221,4.368
					H890.263z"/>
				<path fill="#F2F2F2" d="M916.716,311.185c-1.437,0.488-4.154,1.16-6.873,1.16c-3.757,0-6.476-0.946-8.369-2.779
					c-1.895-1.771-2.933-4.459-2.901-7.483c0.03-6.842,5.01-10.752,11.76-10.752c2.656,0,4.703,0.519,5.711,1.007l-0.977,3.727
					c-1.131-0.489-2.535-0.886-4.796-0.886c-3.879,0-6.812,2.2-6.812,6.659c0,4.246,2.657,6.75,6.476,6.75
					c1.069,0,1.925-0.122,2.291-0.306v-4.307h-3.177v-3.635h7.667V311.185z"/>
				<path fill="#F2F2F2" d="M932.601,303.426h-7.575v4.887h8.46v3.818h-13.134v-20.587h12.707v3.817h-8.033v4.277h7.575V303.426z"/>
			</g>
		</g>
	</g>
</g>
<g id="concat">
	<g>
		<g>
			<rect x="344" y="50" opacity="0.75" fill="#3FA9F5" width="322" height="709"/>
			<path opacity="0.75" fill="#3FA9F5" d="M666,348.962c13,9.238,64.803,63.124,64.803,63.124L666,469.051V348.962z"/>
		</g>
		<g>
			<path fill="#FFFFFF" d="M372.89,716.904c-0.321-0.516-0.722-0.967-1.202-1.357c-0.481-0.388-1.025-0.691-1.631-0.909
				c-0.606-0.217-1.242-0.325-1.905-0.325c-1.214,0-2.244,0.234-3.091,0.703c-0.846,0.469-1.534,1.099-2.06,1.889
				c-0.527,0.789-0.91,1.688-1.15,2.695c-0.241,1.007-0.361,2.049-0.361,3.124c0,1.03,0.12,2.031,0.361,3.004
				c0.24,0.974,0.623,1.849,1.15,2.627c0.526,0.777,1.213,1.402,2.06,1.87c0.847,0.47,1.877,0.705,3.091,0.705
				c1.648,0,2.935-0.503,3.862-1.512c0.927-1.007,1.493-2.335,1.699-3.982h5.219c-0.137,1.534-0.493,2.919-1.064,4.154
				c-0.572,1.236-1.328,2.29-2.266,3.159c-0.938,0.87-2.037,1.534-3.296,1.99c-1.259,0.458-2.644,0.688-4.154,0.688
				c-1.877,0-3.566-0.326-5.064-0.979c-1.5-0.652-2.764-1.55-3.793-2.695c-1.03-1.145-1.82-2.489-2.369-4.033
				c-0.549-1.546-0.824-3.211-0.824-4.996c0-1.831,0.275-3.53,0.824-5.099c0.549-1.567,1.339-2.936,2.369-4.104
				c1.029-1.167,2.294-2.082,3.793-2.746c1.499-0.663,3.187-0.995,5.064-0.995c1.35,0,2.626,0.194,3.828,0.584
				c1.201,0.389,2.277,0.956,3.227,1.698c0.949,0.744,1.734,1.665,2.352,2.764c0.618,1.099,1.006,2.358,1.167,3.777h-5.219
				C373.416,717.985,373.21,717.419,372.89,716.904z"/>
			<path fill="#FFFFFF" d="M382.366,717.625c0.549-1.567,1.339-2.936,2.369-4.104c1.029-1.167,2.294-2.082,3.793-2.746
				c1.499-0.663,3.187-0.995,5.064-0.995c1.899,0,3.593,0.332,5.081,0.995c1.488,0.664,2.747,1.579,3.777,2.746
				c1.029,1.168,1.819,2.536,2.369,4.104c0.549,1.568,0.824,3.268,0.824,5.099c0,1.785-0.275,3.45-0.824,4.996
				c-0.549,1.544-1.339,2.889-2.369,4.033c-1.03,1.146-2.29,2.043-3.777,2.695s-3.182,0.979-5.081,0.979
				c-1.877,0-3.566-0.326-5.064-0.979c-1.5-0.652-2.764-1.55-3.793-2.695c-1.03-1.145-1.82-2.489-2.369-4.033
				c-0.549-1.546-0.824-3.211-0.824-4.996C381.542,720.893,381.816,719.193,382.366,717.625z M387.292,725.728
				c0.241,0.974,0.624,1.849,1.15,2.627c0.526,0.777,1.213,1.402,2.06,1.87c0.847,0.47,1.877,0.705,3.091,0.705
				c1.212,0,2.243-0.235,3.09-0.705c0.847-0.468,1.533-1.093,2.06-1.87c0.526-0.778,0.91-1.653,1.15-2.627
				c0.24-0.973,0.36-1.974,0.36-3.004c0-1.075-0.12-2.117-0.36-3.124c-0.241-1.007-0.624-1.906-1.15-2.695
				c-0.526-0.79-1.213-1.42-2.06-1.889c-0.847-0.469-1.877-0.703-3.09-0.703c-1.214,0-2.244,0.234-3.091,0.703
				c-0.846,0.469-1.534,1.099-2.06,1.889c-0.527,0.789-0.91,1.688-1.15,2.695c-0.24,1.007-0.36,2.049-0.36,3.124
				C386.932,723.754,387.052,724.755,387.292,725.728z"/>
			<path fill="#FFFFFF" d="M414.673,710.364l10.231,16.444h0.068v-16.444h5.047v24.513h-5.39l-10.197-16.41h-0.069v16.41h-5.047
				v-24.513H414.673z"/>
			<path fill="#FFFFFF" d="M450.482,716.904c-0.321-0.516-0.722-0.967-1.202-1.357c-0.481-0.388-1.025-0.691-1.631-0.909
				c-0.606-0.217-1.242-0.325-1.905-0.325c-1.214,0-2.244,0.234-3.091,0.703c-0.846,0.469-1.534,1.099-2.06,1.889
				c-0.527,0.789-0.91,1.688-1.15,2.695c-0.24,1.007-0.36,2.049-0.36,3.124c0,1.03,0.12,2.031,0.36,3.004
				c0.241,0.974,0.624,1.849,1.15,2.627c0.526,0.777,1.213,1.402,2.06,1.87c0.847,0.47,1.877,0.705,3.091,0.705
				c1.647,0,2.935-0.503,3.862-1.512c0.927-1.007,1.493-2.335,1.699-3.982h5.219c-0.137,1.534-0.493,2.919-1.064,4.154
				c-0.572,1.236-1.328,2.29-2.266,3.159c-0.938,0.87-2.037,1.534-3.296,1.99c-1.259,0.458-2.644,0.688-4.154,0.688
				c-1.877,0-3.566-0.326-5.064-0.979c-1.5-0.652-2.764-1.55-3.793-2.695c-1.03-1.145-1.82-2.489-2.369-4.033
				c-0.549-1.546-0.824-3.211-0.824-4.996c0-1.831,0.275-3.53,0.824-5.099c0.549-1.567,1.339-2.936,2.369-4.104
				c1.029-1.167,2.294-2.082,3.793-2.746c1.499-0.663,3.187-0.995,5.064-0.995c1.35,0,2.626,0.194,3.828,0.584
				c1.201,0.389,2.277,0.956,3.227,1.698c0.949,0.744,1.734,1.665,2.352,2.764c0.618,1.099,1.006,2.358,1.167,3.777H451.1
				C451.008,717.985,450.802,717.419,450.482,716.904z"/>
			<path fill="#FFFFFF" d="M472.42,710.364l9.167,24.513h-5.596l-1.854-5.459h-9.167l-1.922,5.459h-5.425l9.27-24.513H472.42z
				 M472.729,725.401l-3.09-8.995h-0.069l-3.192,8.995H472.729z"/>
			<path fill="#FFFFFF" d="M478.634,714.896v-4.532h20.085v4.532h-7.347v19.98h-5.39v-19.98H478.634z"/>
			<path fill="#FFFFFF" d="M519.868,710.364v4.532h-12.943v5.252h11.879v4.188h-11.879v6.009h13.218v4.531h-18.608v-24.513H519.868z
				"/>
			<path fill="#FFFFFF" d="M529.138,710.364l10.231,16.444h0.068v-16.444h5.047v24.513h-5.39l-10.197-16.41h-0.069v16.41h-5.047
				v-24.513H529.138z"/>
			<path fill="#FFFFFF" d="M561.445,710.364l9.167,24.513h-5.596l-1.854-5.459h-9.167l-1.922,5.459h-5.425l9.271-24.513H561.445z
				 M561.753,725.401l-3.09-8.995h-0.069l-3.192,8.995H561.753z"/>
			<path fill="#FFFFFF" d="M567.658,714.896v-4.532h20.084v4.532h-7.347v19.98h-5.391v-19.98H567.658z"/>
			<path fill="#FFFFFF" d="M595.949,710.364v24.513h-5.391v-24.513H595.949z"/>
			<path fill="#FFFFFF" d="M600.447,717.625c0.549-1.567,1.338-2.936,2.37-4.104c1.029-1.167,2.293-2.082,3.793-2.746
				c1.498-0.663,3.188-0.995,5.065-0.995c1.898,0,3.592,0.332,5.08,0.995c1.488,0.664,2.747,1.579,3.778,2.746
				c1.029,1.168,1.819,2.536,2.369,4.104c0.549,1.568,0.823,3.268,0.823,5.099c0,1.785-0.273,3.45-0.823,4.996
				c-0.549,1.544-1.34,2.889-2.369,4.033c-1.031,1.146-2.29,2.043-3.778,2.695s-3.182,0.979-5.08,0.979
				c-1.877,0-3.567-0.326-5.065-0.979c-1.5-0.652-2.764-1.55-3.793-2.695c-1.031-1.145-1.82-2.489-2.37-4.033
				c-0.549-1.546-0.824-3.211-0.824-4.996C599.623,720.893,599.897,719.193,600.447,717.625z M605.373,725.728
				c0.241,0.974,0.624,1.849,1.151,2.627c0.526,0.777,1.213,1.402,2.059,1.87c0.848,0.47,1.877,0.705,3.092,0.705
				c1.212,0,2.242-0.235,3.089-0.705c0.846-0.468,1.533-1.093,2.061-1.87c0.526-0.778,0.908-1.653,1.149-2.627
				c0.241-0.973,0.36-1.974,0.36-3.004c0-1.075-0.119-2.117-0.36-3.124s-0.624-1.906-1.149-2.695
				c-0.527-0.79-1.215-1.42-2.061-1.889c-0.847-0.469-1.877-0.703-3.089-0.703c-1.214,0-2.244,0.234-3.092,0.703
				c-0.846,0.469-1.533,1.099-2.059,1.889c-0.527,0.789-0.91,1.688-1.151,2.695c-0.24,1.007-0.359,2.049-0.359,3.124
				C605.014,723.754,605.133,724.755,605.373,725.728z"/>
			<path fill="#FFFFFF" d="M632.753,710.364l10.231,16.444h0.069v-16.444h5.047v24.513h-5.392l-10.196-16.41h-0.068v16.41h-5.048
				v-24.513H632.753z"/>
		</g>
	</g>
	<g id="Calque_6">
		<g>
			<path fill="#E9E9E0" d="M546.085,132.286H413.958c-3.679,0-6.662,2.979-6.662,8.769v241.631c0,1.568,2.983,4.554,6.662,4.554
				h182.445c3.677,0,6.661-2.986,6.661-4.554V191.372c0-3.171-0.424-4.191-1.173-4.942l-52.975-52.976
				C548.166,132.709,547.146,132.286,546.085,132.286z"/>
			<polygon fill="#D9D7CA" points="548.431,131.517 548.431,185.465 602.376,185.465 			"/>
			<path fill="#EEAF4B" d="M596.404,457.063H413.958c-3.679,0-6.662-2.986-6.662-6.664v-70.735h195.768v70.735
				C603.064,454.077,600.081,457.063,596.404,457.063z"/>
			<g>
				<path fill="#FFFFFF" d="M496.17,396.595v35.729c0,2.157-0.397,3.976-1.183,5.449c-0.793,1.467-1.848,2.651-3.174,3.548
					c-1.327,0.888-2.853,1.513-4.576,1.864c-1.72,0.346-3.499,0.525-5.323,0.525c-0.912,0-1.985-0.097-3.205-0.281
					c-1.218-0.184-2.488-0.478-3.796-0.87c-1.306-0.393-2.563-0.84-3.765-1.336c-1.204-0.499-2.223-1.06-3.052-1.681l3.174-5.043
					c0.415,0.286,1.008,0.597,1.778,0.9c0.768,0.311,1.605,0.602,2.521,0.87c0.912,0.273,1.869,0.507,2.863,0.716
					c0.996,0.209,1.933,0.311,2.802,0.311c2.193,0,3.952-0.429,5.257-1.276c1.305-0.847,1.997-2.294,2.086-4.321v-35.104H496.17
					L496.17,396.595z"/>
				<path fill="#FFFFFF" d="M533.334,430.828c0,1.658-0.339,3.268-1.031,4.823c-0.686,1.561-1.645,2.934-2.894,4.106
					c-1.249,1.181-2.781,2.129-4.604,2.831c-1.828,0.71-3.905,1.062-6.224,1.062c-0.999,0-2.024-0.06-3.084-0.155
					c-1.059-0.101-2.132-0.285-3.205-0.53c-1.08-0.25-2.11-0.591-3.083-1.031c-0.974-0.435-1.817-0.965-2.521-1.585l1.305-5.354
					c0.579,0.334,1.318,0.656,2.209,0.965c0.892,0.311,1.809,0.598,2.769,0.866c0.951,0.274,1.907,0.489,2.861,0.66
					c0.953,0.162,1.844,0.252,2.676,0.252c2.534,0,4.47-0.597,5.818-1.778c1.35-1.185,2.023-2.938,2.023-5.262
					c0-1.408-0.479-2.612-1.43-3.607c-0.957-0.995-2.149-1.901-3.58-2.712c-1.428-0.811-2.974-1.616-4.638-2.426
					c-1.663-0.812-3.218-1.764-4.667-2.861c-1.451-1.098-2.659-2.396-3.609-3.887c-0.957-1.497-1.428-3.361-1.428-5.604
					c0-2.026,0.37-3.837,1.121-5.412c0.745-1.574,1.752-2.915,3.016-4.012c1.264-1.098,2.742-1.943,4.42-2.529
					c1.681-0.578,3.455-0.863,5.323-0.863c1.905,0,3.836,0.173,5.786,0.524c1.95,0.352,3.522,0.925,4.733,1.712
					c-0.25,0.542-0.542,1.132-0.87,1.775c-0.334,0.649-0.65,1.246-0.937,1.807c-0.292,0.56-0.542,1.024-0.745,1.4
					c-0.208,0.375-0.333,0.584-0.376,0.62c-0.25-0.12-0.523-0.286-0.84-0.494c-0.316-0.209-0.76-0.412-1.338-0.621
					c-0.582-0.208-1.351-0.351-2.304-0.44c-0.954-0.084-2.182-0.06-3.675,0.065c-0.832,0.09-1.616,0.315-2.366,0.716
					c-0.751,0.393-1.416,0.875-1.994,1.461c-0.585,0.583-1.043,1.233-1.372,1.959c-0.332,0.728-0.495,1.426-0.495,2.087
					c0,1.658,0.474,2.999,1.43,4.018c0.948,1.02,2.134,1.907,3.547,2.677c1.407,0.77,2.939,1.514,4.608,2.241
					c1.655,0.722,3.202,1.609,4.637,2.641c1.431,1.037,2.623,2.337,3.578,3.893C532.852,426.382,533.334,428.378,533.334,430.828z"
					/>
			</g>
			<g>
				<path fill="#EEAF4B" d="M449.111,166.498v-13.371c0-1.842,1.499-3.344,3.344-3.344c1.847,0,3.343-1.497,3.343-3.339
					c0-1.847-1.497-3.344-3.343-3.344c-5.528,0-10.027,4.498-10.027,10.026v13.371c0,3.686-3,6.687-6.687,6.687
					c-1.848,0-3.342,1.497-3.342,3.34c0,1.847,1.495,3.344,3.342,3.344c3.687,0,6.687,2.999,6.687,6.684v13.371
					c0,5.532,4.5,10.032,10.027,10.032c1.847,0,3.343-1.498,3.343-3.344c0-1.847-1.497-3.343-3.343-3.343
					c-1.845,0-3.344-1.501-3.344-3.344v-13.371c0-4.009-1.813-7.572-4.618-10.027C447.298,174.073,449.111,170.506,449.111,166.498z
					"/>
				<circle fill="#EEAF4B" cx="475.853" cy="164.827" r="5.013"/>
				<path fill="#EEAF4B" d="M515.965,173.185c-3.688,0-6.686-3.001-6.686-6.687v-13.371c0-5.528-4.5-10.026-10.028-10.026
					c-1.848,0-3.342,1.497-3.342,3.344c0,1.842,1.494,3.339,3.342,3.339c1.847,0,3.343,1.501,3.343,3.344v13.371
					c0,4.009,1.812,7.576,4.623,10.027c-2.81,2.456-4.623,6.018-4.623,10.027v13.371c0,1.843-1.497,3.344-3.343,3.344
					c-1.848,0-3.342,1.496-3.342,3.343c0,1.846,1.494,3.344,3.342,3.344c5.529,0,10.028-4.5,10.028-10.032v-13.371
					c0-3.685,2.999-6.684,6.686-6.684c1.849,0,3.344-1.497,3.344-3.344C519.309,174.681,517.814,173.185,515.965,173.185z"/>
				<path fill="#EEAF4B" d="M475.853,183.211c-1.848,0-3.344,1.498-3.344,3.34v10.032c0,1.841,1.496,3.339,3.344,3.339
					c1.849,0,3.343-1.498,3.343-3.339v-10.032C479.196,184.709,477.702,183.211,475.853,183.211z"/>
			</g>
			<g>
				<path fill="#EEAF4B" d="M447.729,242.562v-13.371c0-1.841,1.5-3.343,3.345-3.343c1.846,0,3.343-1.498,3.343-3.339
					c0-1.847-1.497-3.344-3.343-3.344c-5.53,0-10.028,4.5-10.028,10.026v13.371c0,3.687-3,6.688-6.688,6.688
					c-1.848,0-3.341,1.497-3.341,3.338c0,1.848,1.494,3.344,3.341,3.344c3.687,0,6.688,2.999,6.688,6.685v13.371
					c0,5.533,4.499,10.031,10.028,10.031c1.846,0,3.343-1.497,3.343-3.344c0-1.846-1.497-3.342-3.343-3.342
					c-1.845,0-3.345-1.502-3.345-3.344v-13.371c0-4.01-1.812-7.573-4.617-10.028C445.917,250.139,447.729,246.572,447.729,242.562z"
					/>
				<circle fill="#EEAF4B" cx="474.47" cy="240.893" r="5.013"/>
				<path fill="#EEAF4B" d="M514.582,249.25c-3.687,0-6.686-3.001-6.686-6.688v-13.371c0-5.526-4.499-10.026-10.028-10.026
					c-1.848,0-3.343,1.498-3.343,3.344c0,1.842,1.495,3.339,3.343,3.339c1.847,0,3.343,1.501,3.343,3.343v13.371
					c0,4.01,1.812,7.577,4.623,10.027c-2.811,2.456-4.623,6.018-4.623,10.028v13.371c0,1.842-1.497,3.344-3.343,3.344
					c-1.848,0-3.343,1.497-3.343,3.342c0,1.848,1.495,3.344,3.343,3.344c5.529,0,10.028-4.498,10.028-10.031v-13.371
					c0-3.686,2.999-6.685,6.686-6.685c1.849,0,3.344-1.496,3.344-3.344C517.926,250.747,516.431,249.25,514.582,249.25z"/>
				<path fill="#EEAF4B" d="M474.47,259.277c-1.847,0-3.344,1.496-3.344,3.34v10.031c0,1.842,1.497,3.34,3.344,3.34
					c1.848,0,3.343-1.498,3.343-3.34v-10.031C477.813,260.773,476.318,259.277,474.47,259.277z"/>
			</g>
			<g>
				<path fill="#EEAF4B" d="M447.729,318.7v-13.371c0-1.843,1.5-3.343,3.345-3.343c1.846,0,3.343-1.498,3.343-3.34
					c0-1.846-1.497-3.344-3.343-3.344c-5.53,0-10.028,4.5-10.028,10.027V318.7c0,3.687-3,6.688-6.688,6.688
					c-1.848,0-3.341,1.497-3.341,3.339c0,1.848,1.494,3.344,3.341,3.344c3.687,0,6.688,2.998,6.688,6.683v13.372
					c0,5.532,4.499,10.03,10.028,10.03c1.846,0,3.343-1.496,3.343-3.344c0-1.847-1.497-3.343-3.343-3.343
					c-1.845,0-3.345-1.501-3.345-3.344v-13.372c0-4.009-1.812-7.572-4.617-10.027C445.917,326.276,447.729,322.709,447.729,318.7z"
					/>
				<circle fill="#EEAF4B" cx="474.47" cy="317.03" r="5.013"/>
				<path fill="#EEAF4B" d="M514.582,325.388c-3.687,0-6.686-3.001-6.686-6.688v-13.371c0-5.527-4.499-10.027-10.028-10.027
					c-1.848,0-3.343,1.498-3.343,3.344c0,1.842,1.495,3.34,3.343,3.34c1.847,0,3.343,1.5,3.343,3.343V318.7
					c0,4.01,1.812,7.576,4.623,10.027c-2.811,2.456-4.623,6.018-4.623,10.027v13.372c0,1.843-1.497,3.344-3.343,3.344
					c-1.848,0-3.343,1.496-3.343,3.343c0,1.848,1.495,3.344,3.343,3.344c5.529,0,10.028-4.499,10.028-10.03v-13.372
					c0-3.686,2.999-6.683,6.686-6.683c1.849,0,3.344-1.497,3.344-3.344C517.926,326.884,516.431,325.388,514.582,325.388z"/>
				<path fill="#EEAF4B" d="M474.47,335.415c-1.847,0-3.344,1.497-3.344,3.339v10.033c0,1.841,1.497,3.339,3.344,3.339
					c1.848,0,3.343-1.499,3.343-3.339v-10.033C477.813,336.911,476.318,335.415,474.47,335.415z"/>
			</g>
		</g>
	</g>
</g>
<g id="tree">
	<g>
		<rect x="380" y="534" fill="#0071BC" width="254" height="119"/>
		<g>
			<path fill="#F2F2F2" d="M481.792,566.017h-5.528v-3.91h15.822v3.91h-5.621v16.678h-4.673V566.017z"/>
			<path fill="#F2F2F2" d="M494.561,562.381c1.497-0.244,3.727-0.427,6.201-0.427c3.055,0,5.193,0.457,6.659,1.618
				c1.222,0.979,1.894,2.413,1.894,4.308c0,2.627-1.864,4.429-3.635,5.069v0.092c1.436,0.581,2.23,1.955,2.749,3.85
				c0.642,2.321,1.283,5.01,1.68,5.804h-4.765c-0.336-0.581-0.825-2.261-1.436-4.796c-0.55-2.566-1.435-3.269-3.329-3.299h-1.405
				v8.095h-4.612V562.381z M499.173,571.239h1.833c2.321,0,3.696-1.16,3.696-2.963c0-1.894-1.283-2.841-3.421-2.871
				c-1.13,0-1.771,0.092-2.108,0.152V571.239z"/>
			<path fill="#F2F2F2" d="M524.924,573.989h-7.576v4.887h8.461v3.818h-13.134v-20.588h12.707v3.818h-8.034v4.276h7.576V573.989z"/>
			<path fill="#F2F2F2" d="M541.236,573.989h-7.576v4.887h8.461v3.818h-13.134v-20.588h12.707v3.818h-8.034v4.276h7.576V573.989z"/>
			<path fill="#F2F2F2" d="M448.236,614.556c1.252,0.641,3.177,1.282,5.162,1.282c2.139,0,3.269-0.887,3.269-2.23
				c0-1.283-0.978-2.016-3.452-2.901c-3.421-1.191-5.651-3.085-5.651-6.078c0-3.514,2.932-6.201,7.789-6.201
				c2.321,0,4.032,0.489,5.254,1.038l-1.039,3.757c-0.825-0.396-2.291-0.977-4.307-0.977c-2.016,0-2.993,0.917-2.993,1.985
				c0,1.313,1.161,1.894,3.818,2.901c3.634,1.345,5.346,3.237,5.346,6.14c0,3.452-2.658,6.385-8.309,6.385
				c-2.352,0-4.673-0.611-5.834-1.253L448.236,614.556z"/>
			<path fill="#F2F2F2" d="M469.252,598.763v7.911h7.667v-7.911h4.643v20.588h-4.643v-8.613h-7.667v8.613h-4.673v-20.588H469.252z"
				/>
			<path fill="#F2F2F2" d="M490.421,614.066l-1.466,5.284h-4.826l6.292-20.588h6.109l6.384,20.588h-5.009l-1.588-5.284H490.421z
				 M495.645,610.584l-1.283-4.369c-0.367-1.221-0.733-2.748-1.039-3.97h-0.062c-0.305,1.222-0.61,2.779-0.946,3.97l-1.222,4.369
				H495.645z"/>
			<path fill="#F2F2F2" d="M505.664,598.763h4.613v9.103h0.091c0.458-0.794,0.947-1.527,1.405-2.261l4.673-6.842h5.712l-6.812,8.767
				l7.178,11.821h-5.438l-5.04-8.89l-1.771,2.17v6.72h-4.613V598.763z"/>
			<path fill="#F2F2F2" d="M529.093,598.763v20.588h-4.673v-20.588H529.093z"/>
			<path fill="#F2F2F2" d="M533.125,619.351v-20.588h5.437l4.276,7.545c1.222,2.169,2.444,4.734,3.36,7.057h0.091
				c-0.305-2.719-0.397-5.499-0.397-8.584v-6.018h4.276v20.588h-4.886l-4.399-7.941c-1.222-2.199-2.566-4.857-3.574-7.271
				l-0.092,0.03c0.123,2.719,0.183,5.621,0.183,8.98v6.201H533.125z"/>
			<path fill="#F2F2F2" d="M571.4,618.403c-1.436,0.489-4.154,1.161-6.873,1.161c-3.757,0-6.476-0.947-8.37-2.779
				c-1.894-1.772-2.932-4.461-2.902-7.484c0.031-6.843,5.01-10.752,11.76-10.752c2.657,0,4.704,0.519,5.712,1.008l-0.978,3.727
				c-1.13-0.488-2.535-0.885-4.796-0.885c-3.879,0-6.811,2.198-6.811,6.658c0,4.246,2.658,6.75,6.476,6.75
				c1.069,0,1.924-0.121,2.291-0.305v-4.308h-3.176v-3.635h7.667V618.403z"/>
		</g>
	</g>
</g>
<g id="entry-files">
	<g>
		<g>
			<path fill="#E9E9E0" d="M113.741,284.83H50.767c-1.753,0-3.174,1.421-3.174,4.18v115.164c0,0.749,1.421,2.17,3.174,2.17h86.955
				c1.754,0,3.175-1.422,3.175-2.17v-91.182c0-1.511-0.202-1.997-0.558-2.355l-25.249-25.249
				C114.733,285.032,114.247,284.83,113.741,284.83z"/>
			<polygon fill="#D9D7CA" points="114.858,285.158 114.858,310.869 140.569,310.869 			"/>
			<path fill="#EEAF4B" d="M137.722,406.344H50.767c-1.753,0-3.174-1.422-3.174-3.176v-33.712h93.305v33.712
				C140.897,404.922,139.476,406.344,137.722,406.344z"/>
			<g>
				<path fill="#FFFFFF" d="M89.951,377.525v17.029c0,1.028-0.189,1.895-0.564,2.595c-0.377,0.701-0.88,1.266-1.513,1.691
					c-0.633,0.425-1.36,0.723-2.18,0.889c-0.82,0.167-1.669,0.252-2.537,0.252c-0.437,0-0.946-0.045-1.528-0.135
					c-0.582-0.088-1.187-0.226-1.81-0.414c-0.623-0.189-1.222-0.401-1.794-0.638c-0.574-0.237-1.059-0.504-1.454-0.801l1.512-2.401
					c0.198,0.136,0.479,0.282,0.846,0.429c0.367,0.148,0.766,0.286,1.202,0.415c0.435,0.13,0.89,0.241,1.365,0.34
					c0.475,0.101,0.92,0.148,1.335,0.148c1.045,0,1.884-0.204,2.506-0.607c0.623-0.404,0.952-1.094,0.994-2.062v-16.732h3.619
					V377.525z"/>
				<path fill="#FFFFFF" d="M107.663,393.84c0,0.79-0.162,1.559-0.491,2.3c-0.328,0.742-0.785,1.395-1.38,1.957
					s-1.326,1.013-2.196,1.35c-0.87,0.336-1.859,0.503-2.966,0.503c-0.475,0-0.964-0.026-1.469-0.074s-1.015-0.134-1.527-0.251
					c-0.514-0.119-1.005-0.283-1.469-0.491c-0.465-0.208-0.867-0.46-1.203-0.757l0.623-2.551c0.275,0.158,0.627,0.312,1.052,0.459
					c0.425,0.148,0.863,0.287,1.319,0.414c0.454,0.131,0.909,0.232,1.365,0.313c0.453,0.078,0.878,0.119,1.276,0.119
					c1.207,0,2.131-0.283,2.772-0.847c0.643-0.564,0.964-1.399,0.964-2.506c0-0.672-0.229-1.245-0.682-1.72
					c-0.456-0.475-1.024-0.905-1.705-1.292c-0.681-0.386-1.419-0.77-2.211-1.156c-0.792-0.387-1.534-0.841-2.224-1.365
					c-0.693-0.522-1.267-1.141-1.722-1.853c-0.456-0.711-0.681-1.601-0.681-2.668c0-0.968,0.177-1.83,0.534-2.58
					c0.355-0.751,0.835-1.392,1.438-1.914s1.306-0.925,2.107-1.202c0.801-0.277,1.647-0.414,2.537-0.414
					c0.908,0,1.829,0.084,2.757,0.251c0.929,0.167,1.68,0.44,2.255,0.816c-0.119,0.256-0.259,0.538-0.415,0.846
					c-0.159,0.308-0.309,0.593-0.445,0.859c-0.139,0.267-0.258,0.491-0.355,0.668c-0.1,0.178-0.158,0.278-0.179,0.297
					c-0.119-0.059-0.251-0.137-0.401-0.236c-0.15-0.101-0.362-0.198-0.638-0.298c-0.278-0.099-0.645-0.167-1.098-0.208
					c-0.456-0.042-1.04-0.031-1.751,0.029c-0.396,0.042-0.77,0.152-1.128,0.341c-0.358,0.189-0.675,0.419-0.95,0.697
					c-0.278,0.277-0.498,0.588-0.653,0.935c-0.158,0.345-0.237,0.679-0.237,0.994c0,0.79,0.227,1.428,0.682,1.913
					c0.453,0.486,1.017,0.91,1.69,1.276c0.672,0.367,1.401,0.723,2.196,1.068c0.79,0.345,1.527,0.768,2.21,1.261
					c0.683,0.492,1.25,1.113,1.706,1.853C107.433,391.72,107.663,392.673,107.663,393.84z"/>
			</g>
			<g>
				<path fill="#EEAF4B" d="M75.8,326.058v-8.679c0-1.197,0.973-2.17,2.17-2.17c1.2,0,2.17-0.973,2.17-2.17
					c0-1.198-0.97-2.17-2.17-2.17c-3.588,0-6.509,2.92-6.509,6.51v8.679c0,2.393-1.947,4.34-4.34,4.34
					c-1.201,0-2.17,0.972-2.17,2.169c0,1.198,0.969,2.17,2.17,2.17c2.393,0,4.34,1.947,4.34,4.339v8.68
					c0,3.589,2.921,6.509,6.509,6.509c1.2,0,2.17-0.972,2.17-2.169s-0.97-2.17-2.17-2.17c-1.197,0-2.17-0.974-2.17-2.17v-8.68
					c0-2.603-1.175-4.917-2.998-6.509C74.625,330.975,75.8,328.662,75.8,326.058z"/>
				<circle fill="#EEAF4B" cx="93.16" cy="324.973" r="3.255"/>
				<path fill="#EEAF4B" d="M119.198,330.398c-2.394,0-4.34-1.947-4.34-4.34v-8.679c0-3.589-2.92-6.51-6.51-6.51
					c-1.2,0-2.17,0.972-2.17,2.17c0,1.197,0.97,2.17,2.17,2.17c1.198,0,2.169,0.973,2.169,2.17v8.679c0,2.604,1.176,4.917,3,6.509
					c-1.823,1.593-3,3.906-3,6.509v8.68c0,1.196-0.972,2.17-2.169,2.17c-1.2,0-2.17,0.972-2.17,2.17s0.97,2.169,2.17,2.169
					c3.589,0,6.51-2.92,6.51-6.509v-8.68c0-2.393,1.946-4.339,4.34-4.339c1.2,0,2.17-0.972,2.17-2.17
					C121.368,331.37,120.398,330.398,119.198,330.398z"/>
				<path fill="#EEAF4B" d="M93.16,336.908c-1.2,0-2.171,0.972-2.171,2.169v6.51c0,1.198,0.971,2.17,2.171,2.17
					c1.2,0,2.169-0.972,2.169-2.17v-6.51C95.329,337.879,94.36,336.908,93.16,336.908z"/>
			</g>
		</g>
		<g>
			<path fill="#E9E9E0" d="M139.924,331.379H76.951c-1.753,0-3.175,1.421-3.175,4.179v115.164c0,0.749,1.422,2.171,3.175,2.171
				h86.954c1.753,0,3.175-1.422,3.175-2.171V359.54c0-1.511-0.202-1.997-0.559-2.355l-25.249-25.249
				C140.916,331.581,140.429,331.379,139.924,331.379z"/>
			<polygon fill="#D9D7CA" points="141.042,331.706 141.042,357.417 166.752,357.417 			"/>
			<path fill="#EEAF4B" d="M163.905,452.893H76.951c-1.753,0-3.175-1.422-3.175-3.176v-33.713h93.305v33.713
				C167.081,451.471,165.658,452.893,163.905,452.893z"/>
			<g>
				<path fill="#FFFFFF" d="M116.134,424.073v17.028c0,1.028-0.189,1.896-0.563,2.598c-0.378,0.699-0.881,1.264-1.513,1.69
					c-0.632,0.424-1.36,0.721-2.181,0.889c-0.819,0.166-1.667,0.252-2.537,0.252c-0.435,0-0.946-0.046-1.527-0.136
					c-0.581-0.088-1.186-0.225-1.81-0.414c-0.623-0.188-1.221-0.4-1.794-0.638c-0.574-0.238-1.06-0.504-1.455-0.8l1.513-2.402
					c0.197,0.137,0.48,0.282,0.847,0.429c0.366,0.148,0.765,0.286,1.202,0.415c0.435,0.129,0.891,0.239,1.365,0.339
					c0.475,0.101,0.921,0.148,1.335,0.148c1.046,0,1.884-0.204,2.506-0.607c0.623-0.404,0.952-1.094,0.995-2.062v-16.73
					L116.134,424.073L116.134,424.073z"/>
				<path fill="#FFFFFF" d="M133.847,440.388c0,0.791-0.162,1.559-0.491,2.301c-0.327,0.743-0.785,1.396-1.38,1.957
					c-0.595,0.562-1.325,1.013-2.194,1.351c-0.871,0.337-1.861,0.504-2.966,0.504c-0.476,0-0.964-0.027-1.47-0.074
					c-0.504-0.048-1.016-0.135-1.527-0.253c-0.515-0.119-1.006-0.281-1.469-0.49c-0.465-0.208-0.867-0.46-1.202-0.757l0.622-2.552
					c0.276,0.16,0.628,0.313,1.053,0.46c0.425,0.148,0.862,0.287,1.32,0.414c0.453,0.131,0.909,0.231,1.363,0.314
					c0.455,0.076,0.88,0.119,1.276,0.119c1.208,0,2.131-0.284,2.773-0.848c0.644-0.563,0.965-1.399,0.965-2.506
					c0-0.672-0.229-1.246-0.682-1.721c-0.456-0.475-1.024-0.905-1.707-1.291c-0.68-0.388-1.418-0.771-2.21-1.156
					c-0.792-0.387-1.534-0.843-2.224-1.365c-0.692-0.522-1.267-1.141-1.72-1.854c-0.456-0.712-0.681-1.602-0.681-2.668
					c0-0.968,0.176-1.83,0.534-2.581c0.355-0.751,0.835-1.39,1.438-1.912c0.603-0.523,1.307-0.927,2.107-1.204
					c0.801-0.277,1.646-0.412,2.537-0.412c0.908,0,1.829,0.083,2.757,0.249c0.929,0.168,1.679,0.44,2.256,0.816
					c-0.12,0.258-0.259,0.539-0.415,0.847c-0.159,0.309-0.31,0.593-0.446,0.859c-0.139,0.268-0.259,0.49-0.355,0.669
					c-0.1,0.178-0.159,0.278-0.179,0.296c-0.119-0.058-0.25-0.137-0.401-0.236c-0.15-0.101-0.362-0.196-0.637-0.296
					c-0.277-0.1-0.644-0.168-1.099-0.209c-0.454-0.042-1.04-0.03-1.751,0.03c-0.396,0.042-0.77,0.151-1.127,0.341
					c-0.358,0.188-0.675,0.419-0.951,0.696c-0.278,0.278-0.497,0.588-0.653,0.936c-0.158,0.345-0.236,0.679-0.236,0.992
					c0,0.791,0.226,1.43,0.682,1.916c0.452,0.485,1.018,0.908,1.69,1.275c0.67,0.366,1.4,0.721,2.196,1.067
					c0.789,0.345,1.526,0.768,2.21,1.261c0.682,0.493,1.25,1.112,1.705,1.854C133.617,438.269,133.847,439.222,133.847,440.388z"/>
			</g>
			<g>
				<path fill="#EEAF4B" d="M101.984,372.605v-8.679c0-1.196,0.973-2.169,2.171-2.169c1.199,0,2.17-0.973,2.17-2.168
					c0-1.2-0.972-2.171-2.17-2.171c-3.588,0-6.509,2.921-6.509,6.509v8.679c0,2.395-1.948,4.342-4.341,4.342
					c-1.199,0-2.169,0.972-2.169,2.167c0,1.199,0.971,2.171,2.169,2.171c2.394,0,4.341,1.946,4.341,4.34v8.679
					c0,3.589,2.921,6.51,6.509,6.51c1.199,0,2.17-0.972,2.17-2.17c0-1.198-0.972-2.17-2.17-2.17c-1.198,0-2.171-0.973-2.171-2.169
					v-8.679c0-2.604-1.176-4.917-2.998-6.511C100.808,377.523,101.984,375.209,101.984,372.605z"/>
				<circle fill="#EEAF4B" cx="119.343" cy="371.522" r="3.255"/>
				<path fill="#EEAF4B" d="M145.381,376.947c-2.394,0-4.34-1.947-4.34-4.342v-8.679c0-3.588-2.92-6.509-6.51-6.509
					c-1.2,0-2.169,0.972-2.169,2.171c0,1.196,0.97,2.168,2.169,2.168c1.199,0,2.17,0.974,2.17,2.169v8.679
					c0,2.604,1.176,4.918,3,6.509c-1.824,1.594-3,3.907-3,6.511v8.679c0,1.196-0.972,2.169-2.17,2.169
					c-1.2,0-2.169,0.973-2.169,2.17c0,1.199,0.97,2.17,2.169,2.17c3.589,0,6.51-2.921,6.51-6.51v-8.679
					c0-2.394,1.946-4.34,4.34-4.34c1.201,0,2.17-0.972,2.17-2.171C147.552,377.919,146.582,376.947,145.381,376.947z"/>
				<path fill="#EEAF4B" d="M119.343,383.456c-1.2,0-2.171,0.972-2.171,2.169v6.51c0,1.197,0.972,2.169,2.171,2.169
					s2.17-0.972,2.17-2.169v-6.51C121.514,384.428,120.543,383.456,119.343,383.456z"/>
			</g>
		</g>
		<g>
			<path fill="#E9E9E0" d="M166.356,379.407h-62.973c-1.752,0-3.174,1.42-3.174,4.179V498.75c0,0.748,1.422,2.171,3.174,2.171
				h86.955c1.752,0,3.174-1.423,3.174-2.171v-91.182c0-1.512-0.202-1.997-0.558-2.355l-25.25-25.25
				C167.347,379.608,166.862,379.407,166.356,379.407z"/>
			<polygon fill="#D9D7CA" points="167.474,379.733 167.474,405.446 193.185,405.446 			"/>
			<path fill="#EEAF4B" d="M190.338,500.921h-86.955c-1.752,0-3.174-1.423-3.174-3.177v-33.712h93.304v33.712
				C193.512,499.498,192.09,500.921,190.338,500.921z"/>
			<g>
				<path fill="#FFFFFF" d="M142.566,472.102v17.029c0,1.028-0.188,1.895-0.564,2.597c-0.378,0.699-0.881,1.265-1.513,1.689
					c-0.632,0.425-1.359,0.723-2.18,0.891c-0.82,0.164-1.667,0.249-2.537,0.249c-0.435,0-0.946-0.045-1.527-0.134
					c-0.581-0.088-1.187-0.227-1.81-0.414c-0.622-0.188-1.222-0.4-1.794-0.637c-0.573-0.238-1.06-0.505-1.454-0.801l1.513-2.404
					c0.198,0.137,0.48,0.285,0.847,0.43c0.367,0.147,0.766,0.286,1.202,0.415c0.435,0.13,0.891,0.241,1.366,0.341
					c0.474,0.1,0.92,0.147,1.335,0.147c1.046,0,1.883-0.204,2.506-0.607c0.622-0.403,0.952-1.094,0.994-2.061v-16.73H142.566
					L142.566,472.102z"/>
				<path fill="#FFFFFF" d="M160.279,488.417c0,0.79-0.162,1.558-0.492,2.299c-0.327,0.744-0.784,1.397-1.379,1.958
					c-0.596,0.562-1.326,1.014-2.195,1.349c-0.871,0.338-1.861,0.506-2.966,0.506c-0.476,0-0.964-0.028-1.47-0.074
					c-0.504-0.047-1.016-0.137-1.527-0.252c-0.514-0.12-1.006-0.282-1.469-0.491c-0.465-0.208-0.866-0.461-1.202-0.756l0.622-2.552
					c0.276,0.159,0.628,0.312,1.053,0.46c0.424,0.148,0.862,0.284,1.319,0.412c0.453,0.13,0.909,0.233,1.364,0.315
					c0.455,0.077,0.879,0.119,1.276,0.119c1.208,0,2.13-0.283,2.772-0.847c0.644-0.565,0.964-1.401,0.964-2.509
					c0-0.67-0.229-1.244-0.682-1.719c-0.456-0.474-1.024-0.906-1.706-1.293c-0.681-0.386-1.417-0.77-2.21-1.155
					c-0.792-0.387-1.534-0.842-2.225-1.364c-0.692-0.522-1.267-1.143-1.72-1.853c-0.456-0.713-0.68-1.603-0.68-2.67
					c0-0.967,0.176-1.83,0.534-2.581c0.355-0.749,0.835-1.389,1.438-1.912c0.603-0.522,1.307-0.926,2.106-1.203
					c0.801-0.276,1.647-0.413,2.537-0.413c0.908,0,1.828,0.082,2.758,0.25c0.929,0.168,1.679,0.44,2.255,0.816
					c-0.119,0.258-0.258,0.54-0.415,0.846c-0.159,0.311-0.309,0.595-0.446,0.861c-0.139,0.268-0.259,0.488-0.355,0.667
					c-0.099,0.18-0.159,0.279-0.179,0.296c-0.12-0.057-0.25-0.136-0.4-0.235c-0.151-0.1-0.362-0.196-0.638-0.296
					c-0.277-0.1-0.644-0.168-1.098-0.211c-0.455-0.039-1.04-0.027-1.752,0.031c-0.396,0.043-0.77,0.151-1.128,0.342
					c-0.358,0.187-0.674,0.418-0.95,0.695c-0.278,0.279-0.497,0.589-0.653,0.936c-0.158,0.347-0.236,0.679-0.236,0.994
					c0,0.79,0.226,1.429,0.682,1.914c0.452,0.487,1.018,0.91,1.691,1.276c0.67,0.367,1.4,0.722,2.196,1.068
					c0.789,0.344,1.525,0.767,2.21,1.259c0.682,0.494,1.25,1.113,1.705,1.854C160.048,486.298,160.279,487.25,160.279,488.417z"/>
			</g>
			<g>
				<path fill="#EEAF4B" d="M128.416,420.634v-8.679c0-1.196,0.973-2.171,2.17-2.171c1.199,0,2.17-0.971,2.17-2.167
					c0-1.199-0.971-2.171-2.17-2.171c-3.588,0-6.509,2.921-6.509,6.509v8.679c0,2.394-1.948,4.343-4.341,4.343
					c-1.199,0-2.169,0.971-2.169,2.166c0,1.2,0.97,2.172,2.169,2.172c2.394,0,4.341,1.945,4.341,4.338v8.679
					c0,3.592,2.92,6.513,6.509,6.513c1.199,0,2.17-0.972,2.17-2.17c0-1.199-0.971-2.171-2.17-2.171c-1.198,0-2.17-0.975-2.17-2.172
					v-8.679c0-2.602-1.176-4.915-2.997-6.51C127.24,425.552,128.416,423.236,128.416,420.634z"/>
				<circle fill="#EEAF4B" cx="145.775" cy="419.551" r="3.254"/>
				<path fill="#EEAF4B" d="M171.814,424.977c-2.394,0-4.34-1.949-4.34-4.343v-8.679c0-3.588-2.921-6.509-6.511-6.509
					c-1.199,0-2.169,0.972-2.169,2.171c0,1.196,0.97,2.167,2.169,2.167c1.199,0,2.171,0.975,2.171,2.171v8.679
					c0,2.603,1.176,4.918,3,6.509c-1.824,1.595-3,3.908-3,6.51v8.679c0,1.197-0.972,2.172-2.171,2.172
					c-1.199,0-2.169,0.972-2.169,2.171c0,1.198,0.97,2.17,2.169,2.17c3.59,0,6.511-2.921,6.511-6.513v-8.679
					c0-2.393,1.946-4.338,4.34-4.338c1.2,0,2.17-0.972,2.17-2.172C173.984,425.947,173.014,424.977,171.814,424.977z"/>
				<path fill="#EEAF4B" d="M145.775,431.485c-1.199,0-2.17,0.971-2.17,2.167v6.512c0,1.196,0.972,2.167,2.17,2.167
					c1.201,0,2.171-0.971,2.171-2.167v-6.512C147.946,432.456,146.976,431.485,145.775,431.485z"/>
			</g>
		</g>
	</g>
	<path opacity="0.75" fill="#FF1D25" d="M244,354.781c13,9.238,64.803,63.124,64.803,63.124L244,474.869V354.781z"/>
</g>
<g id="dce">
	<g>
		<rect x="698" y="534" fill="#6DA541" width="255" height="119"/>
		<g>
			<path fill="#F2F2F2" d="M790.691,547.835c1.71-0.274,3.939-0.428,6.292-0.428c3.91,0,6.445,0.702,8.431,2.199
				c2.138,1.589,3.481,4.123,3.481,7.759c0,3.939-1.436,6.658-3.421,8.338c-2.169,1.803-5.468,2.658-9.499,2.658
				c-2.413,0-4.125-0.152-5.284-0.306V547.835z M795.364,564.635c0.396,0.092,1.038,0.092,1.619,0.092
				c4.215,0.03,6.964-2.291,6.964-7.209c0.03-4.275-2.474-6.537-6.475-6.537c-1.04,0-1.712,0.092-2.108,0.184V564.635z"/>
			<path fill="#F2F2F2" d="M824.2,559.442h-7.575v4.887h8.461v3.818h-13.135v-20.587h12.707v3.817h-8.033v4.276h7.575V559.442z"/>
			<path fill="#F2F2F2" d="M833.06,562.863l-1.466,5.284h-4.827l6.293-20.587h6.108l6.385,20.587h-5.01l-1.588-5.284H833.06z
				 M838.283,559.381l-1.284-4.368c-0.366-1.222-0.732-2.749-1.038-3.971H835.9c-0.306,1.222-0.611,2.779-0.947,3.971l-1.222,4.368
				H838.283z"/>
			<path fill="#F2F2F2" d="M848.303,547.835c1.711-0.274,3.94-0.428,6.293-0.428c3.909,0,6.445,0.702,8.43,2.199
				c2.139,1.589,3.482,4.123,3.482,7.759c0,3.939-1.436,6.658-3.421,8.338c-2.169,1.803-5.468,2.658-9.5,2.658
				c-2.413,0-4.124-0.152-5.284-0.306V547.835z M852.977,564.635c0.396,0.092,1.038,0.092,1.619,0.092
				c4.215,0.03,6.964-2.291,6.964-7.209c0.03-4.275-2.474-6.537-6.477-6.537c-1.038,0-1.71,0.092-2.106,0.184V564.635z"/>
			<path fill="#F2F2F2" d="M806.881,604.224c-0.855,0.428-2.78,0.886-5.285,0.886c-7.116,0-10.782-4.43-10.782-10.294
				c0-7.025,5.01-10.935,11.241-10.935c2.412,0,4.245,0.488,5.069,0.916l-0.946,3.695c-0.947-0.397-2.26-0.764-3.91-0.764
				c-3.695,0-6.567,2.229-6.567,6.812c0,4.124,2.444,6.721,6.599,6.721c1.404,0,2.963-0.306,3.879-0.673L806.881,604.224z"/>
			<path fill="#F2F2F2" d="M827.865,594.296c0,6.751-4.093,10.844-10.109,10.844c-6.109,0-9.683-4.611-9.683-10.477
				c0-6.171,3.939-10.782,10.018-10.782C824.414,583.881,827.865,588.615,827.865,594.296z M812.99,594.571
				c0,4.032,1.895,6.872,5.009,6.872c3.146,0,4.949-2.993,4.949-6.994c0-3.696-1.771-6.873-4.979-6.873
				C814.823,587.576,812.99,590.57,812.99,594.571z"/>
			<path fill="#F2F2F2" d="M830.922,584.491c1.711-0.274,3.94-0.428,6.293-0.428c3.909,0,6.445,0.702,8.43,2.199
				c2.139,1.589,3.482,4.123,3.482,7.759c0,3.94-1.436,6.658-3.421,8.339c-2.169,1.802-5.468,2.658-9.5,2.658
				c-2.412,0-4.124-0.153-5.284-0.307V584.491z M835.596,601.292c0.396,0.091,1.038,0.091,1.619,0.091
				c4.215,0.03,6.964-2.291,6.964-7.209c0.03-4.275-2.474-6.536-6.475-6.536c-1.04,0-1.712,0.091-2.108,0.183V601.292z"/>
			<path fill="#F2F2F2" d="M864.432,596.099h-7.575v4.887h8.46v3.818h-13.134v-20.587h12.707v3.818h-8.033v4.275h7.575V596.099z"/>
			<path fill="#F2F2F2" d="M751.285,632.757h-7.575v4.887h8.46v3.818h-13.134v-20.588h12.706v3.818h-8.032v4.276h7.575V632.757z"/>
			<path fill="#F2F2F2" d="M755.349,620.874h4.674v16.678h8.186v3.91h-12.859V620.874z"/>
			<path fill="#F2F2F2" d="M775.631,620.874v20.588h-4.673v-20.588H775.631z"/>
			<path fill="#F2F2F2" d="M797.075,633.58c-0.093-2.474-0.185-5.467-0.185-8.46h-0.092c-0.641,2.627-1.496,5.559-2.291,7.973
				l-2.504,8.032h-3.635l-2.2-7.972c-0.672-2.413-1.374-5.346-1.863-8.033h-0.06c-0.123,2.778-0.215,5.956-0.368,8.521l-0.366,7.82
				h-4.307l1.313-20.588h6.201l2.016,6.873c0.642,2.383,1.283,4.948,1.741,7.36h0.092c0.58-2.382,1.282-5.101,1.955-7.392
				l2.199-6.842h6.078l1.131,20.588h-4.552L797.075,633.58z"/>
			<path fill="#F2F2F2" d="M810.18,620.874v20.588h-4.674v-20.588H810.18z"/>
			<path fill="#F2F2F2" d="M814.212,641.462v-20.588h5.438l4.276,7.545c1.221,2.168,2.443,4.734,3.36,7.057h0.092
				c-0.307-2.719-0.397-5.499-0.397-8.584v-6.018h4.275v20.588h-4.887l-4.398-7.941c-1.222-2.2-2.565-4.858-3.574-7.271l-0.091,0.03
				c0.121,2.719,0.183,5.621,0.183,8.98v6.201H814.212z"/>
			<path fill="#F2F2F2" d="M840.085,636.178l-1.466,5.284h-4.826l6.292-20.588h6.109l6.384,20.588h-5.01l-1.589-5.284H840.085z
				 M845.309,632.695l-1.282-4.369c-0.367-1.221-0.733-2.748-1.04-3.97h-0.06c-0.307,1.222-0.612,2.778-0.948,3.97l-1.222,4.369
				H845.309z"/>
			<path fill="#F2F2F2" d="M856.764,624.784h-5.528v-3.91h15.823v3.91h-5.621v16.678h-4.674V624.784z"/>
			<path fill="#F2F2F2" d="M874.207,620.874v20.588h-4.674v-20.588H874.207z"/>
			<path fill="#F2F2F2" d="M897.086,630.953c0,6.752-4.094,10.845-10.11,10.845c-6.108,0-9.683-4.612-9.683-10.478
				c0-6.17,3.94-10.782,10.018-10.782C893.635,620.538,897.086,625.273,897.086,630.953z M882.21,631.229
				c0,4.031,1.895,6.871,5.01,6.871c3.146,0,4.949-2.993,4.949-6.994c0-3.695-1.772-6.873-4.979-6.873
				C884.043,624.233,882.21,627.228,882.21,631.229z"/>
			<path fill="#F2F2F2" d="M900.143,641.462v-20.588h5.437l4.276,7.545c1.222,2.168,2.443,4.734,3.36,7.057h0.092
				c-0.306-2.719-0.397-5.499-0.397-8.584v-6.018h4.275v20.588h-4.887l-4.398-7.941c-1.221-2.2-2.565-4.858-3.573-7.271l-0.092,0.03
				c0.122,2.719,0.183,5.621,0.183,8.98v6.201H900.143z"/>
		</g>
	</g>
	<g id="Calque_9">
		<rect x="835" y="469" fill="#6DA541" width="16" height="44"/>
		<rect x="821" y="483" fill="#6DA541" width="43" height="17"/>
	</g>
</g>
<g id="out-files">
	<g>
		<path fill="#E9E9E0" d="M1190.422,354.678h-62.973c-1.753,0-3.176,1.421-3.176,4.179v115.165c0,0.747,1.423,2.17,3.176,2.17
			h86.954c1.753,0,3.175-1.423,3.175-2.17v-91.183c0-1.512-0.201-1.998-0.559-2.355l-25.248-25.25
			C1191.413,354.879,1190.928,354.678,1190.422,354.678z"/>
		<polygon fill="#D9D7CA" points="1191.54,355.004 1191.54,380.717 1217.25,380.717 		"/>
		<path fill="#EEAF4B" d="M1214.403,476.191h-86.954c-1.753,0-3.176-1.423-3.176-3.176v-33.712h93.305v33.712
			C1217.578,474.769,1216.156,476.191,1214.403,476.191z"/>
		<g>
			<path fill="#FFFFFF" d="M1166.633,447.372v17.03c0,1.027-0.189,1.895-0.564,2.597c-0.378,0.698-0.881,1.265-1.514,1.689
				c-0.632,0.424-1.359,0.722-2.18,0.89c-0.82,0.165-1.669,0.249-2.538,0.249c-0.435,0-0.945-0.045-1.527-0.133
				c-0.58-0.088-1.185-0.228-1.809-0.415c-0.622-0.188-1.223-0.399-1.795-0.636c-0.573-0.239-1.06-0.506-1.454-0.801l1.514-2.403
				c0.196,0.136,0.479,0.283,0.846,0.429c0.367,0.146,0.766,0.286,1.201,0.415s0.892,0.24,1.365,0.34
				c0.476,0.1,0.922,0.147,1.336,0.147c1.046,0,1.883-0.204,2.506-0.607c0.622-0.403,0.951-1.094,0.994-2.06v-16.731H1166.633
				L1166.633,447.372z"/>
			<path fill="#FFFFFF" d="M1184.345,463.688c0,0.79-0.162,1.558-0.491,2.299c-0.327,0.744-0.784,1.397-1.38,1.957
				c-0.595,0.562-1.325,1.014-2.194,1.349c-0.871,0.339-1.86,0.507-2.966,0.507c-0.477,0-0.965-0.029-1.471-0.074
				c-0.504-0.048-1.016-0.136-1.527-0.253c-0.514-0.119-1.006-0.281-1.468-0.491c-0.465-0.207-0.867-0.46-1.202-0.755l0.622-2.552
				c0.274,0.158,0.627,0.312,1.053,0.46c0.425,0.148,0.861,0.283,1.319,0.412c0.453,0.13,0.909,0.233,1.364,0.315
				c0.454,0.076,0.879,0.119,1.275,0.119c1.208,0,2.13-0.284,2.772-0.847c0.644-0.565,0.965-1.401,0.965-2.509
				c0-0.67-0.229-1.245-0.683-1.719c-0.455-0.474-1.024-0.906-1.705-1.293c-0.681-0.386-1.418-0.77-2.21-1.155
				c-0.793-0.388-1.534-0.842-2.226-1.364s-1.268-1.143-1.721-1.853c-0.455-0.713-0.68-1.604-0.68-2.67
				c0-0.967,0.176-1.83,0.534-2.581c0.355-0.75,0.835-1.39,1.438-1.912c0.602-0.522,1.307-0.926,2.106-1.204
				c0.801-0.275,1.646-0.412,2.537-0.412c0.907,0,1.828,0.082,2.758,0.25c0.929,0.168,1.678,0.44,2.255,0.815
				c-0.119,0.259-0.258,0.54-0.415,0.847c-0.158,0.311-0.309,0.594-0.445,0.86c-0.14,0.268-0.259,0.489-0.354,0.668
				c-0.101,0.18-0.159,0.279-0.18,0.295c-0.12-0.057-0.249-0.135-0.4-0.234c-0.15-0.101-0.362-0.196-0.638-0.296
				c-0.277-0.1-0.644-0.168-1.098-0.211c-0.456-0.039-1.041-0.027-1.752,0.031c-0.396,0.043-0.77,0.15-1.128,0.342
				c-0.358,0.187-0.675,0.417-0.95,0.695c-0.279,0.279-0.497,0.589-0.653,0.936c-0.158,0.346-0.236,0.679-0.236,0.994
				c0,0.79,0.226,1.429,0.683,1.914c0.451,0.486,1.016,0.91,1.69,1.275c0.67,0.368,1.399,0.723,2.196,1.069
				c0.787,0.344,1.524,0.767,2.209,1.258c0.683,0.495,1.251,1.114,1.705,1.855C1184.114,461.568,1184.345,462.521,1184.345,463.688z
				"/>
		</g>
		<g>
			<path fill="#EEAF4B" d="M1152.482,395.905v-8.68c0-1.196,0.973-2.169,2.17-2.169c1.198,0,2.171-0.974,2.171-2.169
				c0-1.199-0.973-2.17-2.171-2.17c-3.588,0-6.509,2.92-6.509,6.509v8.68c0,2.394-1.948,4.341-4.341,4.341
				c-1.199,0-2.169,0.972-2.169,2.168c0,1.199,0.97,2.17,2.169,2.17c2.393,0,4.341,1.946,4.341,4.338v8.68
				c0,3.591,2.921,6.513,6.509,6.513c1.198,0,2.171-0.973,2.171-2.171c0-1.199-0.973-2.17-2.171-2.17
				c-1.197,0-2.17-0.975-2.17-2.172v-8.68c0-2.602-1.176-4.914-2.998-6.508C1151.307,400.823,1152.482,398.509,1152.482,395.905z"/>
			<circle fill="#EEAF4B" cx="1169.841" cy="394.821" r="3.255"/>
			<path fill="#EEAF4B" d="M1195.88,400.246c-2.394,0-4.34-1.947-4.34-4.341v-8.68c0-3.589-2.921-6.509-6.511-6.509
				c-1.199,0-2.169,0.972-2.169,2.17c0,1.196,0.97,2.169,2.169,2.169c1.198,0,2.171,0.973,2.171,2.169v8.68
				c0,2.604,1.176,4.918,3,6.509c-1.824,1.594-3,3.907-3,6.508v8.68c0,1.197-0.973,2.172-2.171,2.172
				c-1.199,0-2.169,0.971-2.169,2.17c0,1.198,0.97,2.171,2.169,2.171c3.59,0,6.511-2.922,6.511-6.513v-8.68
				c0-2.392,1.946-4.338,4.34-4.338c1.2,0,2.17-0.972,2.17-2.17C1198.05,401.218,1197.08,400.246,1195.88,400.246z"/>
			<path fill="#EEAF4B" d="M1169.841,406.756c-1.199,0-2.17,0.972-2.17,2.167v6.513c0,1.196,0.971,2.167,2.17,2.167
				c1.201,0,2.171-0.971,2.171-2.167v-6.513C1172.012,407.728,1171.042,406.756,1169.841,406.756z"/>
		</g>
	</g>
</g>
</svg>
